<svg version="1.1" xmlns="http://www.w3.org/2000/svg" style="display: block;" viewBox="0 0 2048 1365" width="1536" height="1024" preserveAspectRatio="none">
<defs>
	<linearGradient id="Gradient1" gradientUnits="userSpaceOnUse" x1="1592.23" y1="923.418" x2="1561.72" y2="938.273">
		<stop class="stop0" offset="0" stop-opacity="1" stop-color="rgb(82,81,82)"/>
		<stop class="stop1" offset="1" stop-opacity="1" stop-color="rgb(117,117,117)"/>
	</linearGradient>
	<linearGradient id="Gradient2" gradientUnits="userSpaceOnUse" x1="773.429" y1="773.774" x2="833.573" y2="837.173">
		<stop class="stop0" offset="0" stop-opacity="1" stop-color="rgb(120,119,119)"/>
		<stop class="stop1" offset="1" stop-opacity="1" stop-color="rgb(142,141,141)"/>
	</linearGradient>
	<linearGradient id="Gradient3" gradientUnits="userSpaceOnUse" x1="730.729" y1="974.315" x2="746.191" y2="987.616">
		<stop class="stop0" offset="0" stop-opacity="1" stop-color="rgb(121,120,121)"/>
		<stop class="stop1" offset="1" stop-opacity="1" stop-color="rgb(148,147,147)"/>
	</linearGradient>
</defs>
<path transform="translate(0,0)" fill="rgb(255,255,255)" d="M 0 0 L 2048 0 L 2048 1365 L 0 1365 L 0 0 z"/>
<path transform="translate(0,0)" fill="rgb(24,24,24)" d="M 691.889 678.765 C 703.388 679.061 718.108 680.039 729.233 679.691 L 729.04 778.226 C 754.726 777.871 780.984 779.555 806.709 780.694 C 825.899 781.543 841.504 780.996 860.326 784.928 C 862.562 789.362 861.959 794.642 863.983 797.094 C 868.517 798.335 871.729 798.418 876.23 798.647 C 880.138 798.846 888.427 798.161 889.732 802.742 C 892.436 812.238 902.151 811.786 908.801 817.256 C 909.814 818.078 913.215 823.868 914.291 825.563 L 925.644 829.277 C 926.46 848.316 932.98 839.626 941.15 844.562 C 945.683 850.185 941.145 862.943 947.57 862.432 C 960.896 861.371 959.819 867.313 962.141 878.411 C 963.853 880.412 977.146 885.499 977.221 887.612 C 978.058 911.315 977.641 935.417 977.036 959.137 C 976.927 963.43 977.862 983.905 976.847 986.442 C 971.443 989.594 966.655 987.776 960.963 987.546 C 961.317 993.361 960.902 997.477 960.422 1003.31 C 959.925 1008.46 960.768 1007.17 958.059 1010.18 C 954.1 1011.75 948.398 1010.51 943.94 1009.96 L 943.878 1017.09 C 943.597 1021.32 944.266 1020.54 942.153 1023.5 C 937.17 1025.57 930.841 1023.2 924.922 1022.9 C 924.91 1026.84 925.431 1030.72 923.432 1033.87 C 917.27 1038.87 907.643 1039.37 899.869 1038.93 C 897.238 1042.75 893.806 1047.15 892.558 1051.53 C 886.454 1051.65 880.189 1051.87 874.1 1051.68 C 873.642 1058 873.255 1060.81 871.834 1066.98 L 713.815 1064.38 C 688.806 1064.02 658.841 1064.86 634.336 1063.83 C 634.255 1058.82 634.072 1053.51 634.14 1048.53 C 626.717 1048.56 617.37 1048.69 610.153 1047.46 C 601.757 1046.04 584.035 1047.73 588.646 1034.68 C 585.97 1031.73 582.437 1031.38 578.523 1031.17 C 575.176 1031.01 571.83 1030.8 568.488 1030.55 C 562.94 1029.43 553.245 1030.36 546.177 1029.44 C 524.834 1027.98 491.487 1029.34 468.832 1029.03 C 470.279 1022.94 470.264 1017.19 470.493 1010.96 L 452.334 1010.92 C 452.418 1004.32 452.383 999.567 451.863 992.952 C 451.332 974.426 450.826 971.324 470.846 973.658 C 470.949 969.195 471.274 965.24 471.658 960.794 L 470.682 958.075 C 464.872 954.564 455.178 959.815 451.576 952.818 C 454.093 939.978 445.38 940.848 435.457 939.547 C 434.529 935.128 433.733 930.414 432.903 925.951 C 428.726 925.969 424.635 926.314 420.71 925.083 L 415.536 922.254 C 415.201 917.525 414.373 892.01 415.722 888.535 C 421.597 885.291 426.466 886.052 433.095 886.327 C 434.248 867.156 429.216 859.716 452.022 860.072 C 451.895 806.957 452.793 750.587 451.692 697.865 C 460.731 697.834 481.02 697.072 488.185 702.413 C 489.083 705.807 489.943 709.21 490.765 712.623 C 505.237 717.923 507.036 714.59 509.364 730.234 L 525.863 733.348 C 527.513 739.962 527.435 745.633 531.46 749.554 C 542.381 753.71 546.256 743.468 547.536 766.228 C 568.636 767.61 591.619 766.534 612.934 767.062 L 612.862 750.068 C 620.709 748.324 624 748.341 632.078 748.212 C 631.97 743.747 631.093 733.836 634.336 730.925 C 638.841 726.881 650.207 735.458 652.029 724.496 C 652.668 720.651 651.622 715.953 653.476 712.462 C 658.396 711.866 668.564 712.085 671.257 710.139 C 676.315 701.36 662.43 694.428 691.31 695.584 L 691.889 678.765 z"/>
<path transform="translate(0,0)" fill="rgb(116,115,115)" d="M 547.839 783.998 L 571.455 783.893 L 592.181 783.905 C 598.555 783.996 609.475 784.481 615.496 784.15 C 618.748 784.45 629.793 784.983 631.921 785.444 C 636.999 786.645 645.458 786.232 650.905 786.007 C 650.93 790.032 650.551 798.347 651.995 801.6 L 652.106 802.909 C 658.942 802.924 665.3 801.916 670.151 806.72 C 675.02 815.576 663.165 824.288 683.38 824.839 C 687.335 824.755 687.746 824.062 690.522 826.037 C 691.078 829.076 691.159 830.494 691.248 833.59 L 691.173 840.651 C 697.157 840.833 704.299 841.237 710.19 841.055 C 710.423 848.03 710.58 853.849 710.274 860.876 C 717.968 860.619 721.452 861.263 728.919 862.442 L 728.985 881.037 C 736.881 881.009 740.082 881.329 747.771 882.438 C 747.95 892.576 748.862 905.532 748.716 915.152 L 729.59 914.157 C 722.494 913.839 717.004 913.393 709.955 912.624 L 709.301 926.464 C 702.728 926.21 676.608 924.337 672.555 926.949 C 670.676 931.026 670.916 936.34 670.78 940.935 C 664.919 940.923 658.026 940.729 652.272 941.249 C 652.048 946.76 651.776 952.327 651.616 957.834 C 644.607 957.777 639.113 957.685 632.082 958.41 L 630.948 975.244 C 624.654 975.513 618.696 975.723 612.416 976.426 C 612.191 981.655 612.021 987 611.619 992.207 C 596.187 992.21 580.196 993.031 565.031 992.769 C 559.5 986.72 552.137 980.31 545.946 974.746 L 543.368 974.233 C 530.885 962.255 537.366 956.458 521.585 956.75 C 506.82 957.391 487.579 956.794 472.463 956.777 C 472.308 957.715 472.015 960.077 471.658 960.794 L 470.682 958.075 C 464.872 954.564 455.178 959.815 451.576 952.818 C 454.093 939.978 445.38 940.848 435.457 939.547 C 434.529 935.128 433.733 930.414 432.903 925.951 C 428.726 925.969 424.635 926.314 420.71 925.083 C 425.928 923.629 430.298 926.617 434.163 922.179 C 433.419 911.018 434.603 899.824 433.937 887.915 C 440.454 887.324 446.494 887.189 453.013 887.022 L 453.401 874.248 L 470.849 874.376 L 471.123 860.228 C 471.283 847.027 471.286 833.825 471.129 820.623 L 489.166 820.684 L 489.617 818.239 L 490.975 820.291 C 520.61 819.878 505.047 816.062 508.759 804.435 C 512.93 801.156 522.623 801.501 527.818 802.074 C 528.938 798.786 529.079 788.248 529.258 784.222 L 547.839 783.998 z"/>
<path transform="translate(0,0)" fill="rgb(255,255,255)" d="M 691.007 891.959 C 703.36 895.243 716.486 895.09 729.217 896.246 L 729.59 914.157 C 722.494 913.839 717.004 913.393 709.955 912.624 L 709.301 926.464 C 702.728 926.21 676.608 924.337 672.555 926.949 C 670.676 931.026 670.916 936.34 670.78 940.935 C 664.919 940.923 658.026 940.729 652.272 941.249 C 652.048 946.76 651.776 952.327 651.616 957.834 C 644.607 957.777 639.113 957.685 632.082 958.41 L 630.948 975.244 C 624.654 975.513 618.696 975.723 612.416 976.426 C 612.191 981.655 612.021 987 611.619 992.207 C 596.187 992.21 580.196 993.031 565.031 992.769 C 559.5 986.72 552.137 980.31 545.946 974.746 L 543.368 974.233 C 530.885 962.255 537.366 956.458 521.585 956.75 C 506.82 957.391 487.579 956.794 472.463 956.777 C 472.308 957.715 472.015 960.077 471.658 960.794 L 470.682 958.075 C 464.872 954.564 455.178 959.815 451.576 952.818 C 454.093 939.978 445.38 940.848 435.457 939.547 C 434.529 935.128 433.733 930.414 432.903 925.951 C 428.726 925.969 424.635 926.314 420.71 925.083 C 425.928 923.629 430.298 926.617 434.163 922.179 L 434.866 922.169 L 434.863 903.993 C 452.873 904.273 472.096 903.809 490.161 903.652 L 490.197 920.221 C 497.018 920.114 502.335 920.181 509.169 920.542 C 516.034 921.076 521.491 921.309 528.345 921.419 C 529.022 928.049 529.134 933.07 529.229 939.679 C 534.794 939.531 542.106 939.046 547.429 940.035 L 548.898 941.68 C 552.949 946.421 562.097 954.415 564.28 957.366 L 566.421 958.367 C 567.841 964.257 566.414 969.996 567.413 973.993 C 568.199 969.47 567.92 962.123 567.903 957.311 C 576.406 957.95 585.251 957.795 593.8 957.809 L 612.117 958.029 C 612.662 952.862 612.508 946.144 612.536 940.837 C 619.073 941.063 626.188 940.97 632.776 941.017 C 632.821 935.029 632.898 929.042 633.006 923.055 L 651.949 923.159 L 652.109 906.565 C 657.891 906.83 666.605 907.451 672.048 906.373 L 690.914 906.748 L 691.007 891.959 z"/>
<path transform="translate(0,0)" fill="rgb(41,41,41)" d="M 434.163 922.179 L 434.866 922.169 C 438.569 924.779 447.049 924.363 452.455 925.043 L 454.189 939.298 C 459.821 939.649 465.413 940.098 471.055 939.936 C 471.445 943.437 472.034 954.623 472.463 956.777 C 472.308 957.715 472.015 960.077 471.658 960.794 L 470.682 958.075 C 464.872 954.564 455.178 959.815 451.576 952.818 C 454.093 939.978 445.38 940.848 435.457 939.547 C 434.529 935.128 433.733 930.414 432.903 925.951 C 428.726 925.969 424.635 926.314 420.71 925.083 C 425.928 923.629 430.298 926.617 434.163 922.179 z"/>
<path transform="translate(0,0)" fill="rgb(24,24,24)" d="M 567.903 957.311 C 576.406 957.95 585.251 957.795 593.8 957.809 C 593.895 962.736 594.273 970.186 594.023 974.916 C 585.168 975.385 575.871 976.527 567.413 973.993 C 568.199 969.47 567.92 962.123 567.903 957.311 z"/>
<path transform="translate(0,0)" fill="rgb(196,195,195)" d="M 471.055 939.936 C 477.801 939.824 484.55 939.884 491.294 940.117 L 490.931 955.604 C 497.584 955.604 516.269 955.164 521.585 956.75 C 506.82 957.391 487.579 956.794 472.463 956.777 C 472.034 954.623 471.445 943.437 471.055 939.936 z"/>
<path transform="translate(0,0)" fill="rgb(141,140,140)" d="M 548.898 941.68 C 552.949 946.421 562.097 954.415 564.28 957.366 L 549.047 957.012 L 548.898 941.68 z"/>
<path transform="translate(0,0)" fill="rgb(24,24,24)" d="M 652.019 888.905 C 658.37 888.885 665.609 889.58 672.013 890.041 L 672.048 906.373 C 666.605 907.451 657.891 906.83 652.109 906.565 L 651.949 923.159 L 633.006 923.055 C 627.655 922.618 618.618 922.854 612.993 922.823 L 612.891 906.326 C 621.418 904.448 642.086 905.276 651.775 905.415 L 652.019 888.905 z"/>
<path transform="translate(0,0)" fill="rgb(24,24,24)" d="M 508.967 903.415 C 519.788 903.693 538.74 903.627 548.885 905.013 L 548.963 922.013 C 544.031 922.025 532.656 922.356 528.345 921.419 C 521.491 921.309 516.034 921.076 509.169 920.542 L 508.967 903.415 z"/>
<path transform="translate(0,0)" fill="rgb(154,153,153)" d="M 592.181 783.905 C 598.555 783.996 609.475 784.481 615.496 784.15 C 618.748 784.45 629.793 784.983 631.921 785.444 C 632.149 790.708 633.317 796.959 630.69 801.042 C 627.85 802.241 627.414 802.051 624.228 801.892 C 615.661 800.459 601.661 800.931 592.806 801.033 C 592.26 795.349 592.268 789.617 592.181 783.905 z"/>
<path transform="translate(0,0)" fill="rgb(141,140,140)" d="M 652.106 802.909 C 658.942 802.924 665.3 801.916 670.151 806.72 C 675.02 815.576 663.165 824.288 683.38 824.839 C 678.573 825.552 676.935 825.411 672.132 825.154 C 668.097 824.589 657.941 824.546 653.447 824.4 C 651.353 817.343 651.862 810.18 652.106 802.909 z"/>
<path transform="translate(0,0)" fill="rgb(131,130,130)" d="M 571.455 783.893 L 592.181 783.905 C 592.268 789.617 592.26 795.349 592.806 801.033 C 601.661 800.931 615.661 800.459 624.228 801.892 C 608.493 802.653 588.273 801.967 572.115 801.815 C 572.113 795.26 572.058 790.484 571.455 783.893 z"/>
<path transform="translate(0,0)" fill="rgb(131,130,130)" d="M 691.173 840.651 C 697.157 840.833 704.299 841.237 710.19 841.055 C 710.423 848.03 710.58 853.849 710.274 860.876 C 703.942 861.213 697.607 861.483 691.27 861.686 C 691.187 855.853 691.109 850.782 690.585 844.937 L 691.173 840.651 z"/>
<path transform="translate(0,0)" fill="rgb(141,140,140)" d="M 683.38 824.839 C 687.335 824.755 687.746 824.062 690.522 826.037 C 691.078 829.076 691.159 830.494 691.248 833.59 L 691.173 840.651 L 690.585 844.937 L 672.148 845.001 L 671.993 833.648 L 672.132 825.154 C 676.935 825.411 678.573 825.552 683.38 824.839 z"/>
<path transform="translate(0,0)" fill="rgb(154,153,153)" d="M 683.38 824.839 C 687.335 824.755 687.746 824.062 690.522 826.037 C 691.078 829.076 691.159 830.494 691.248 833.59 C 685.038 833.965 678.256 833.732 671.993 833.648 L 672.132 825.154 C 676.935 825.411 678.573 825.552 683.38 824.839 z"/>
<path transform="translate(0,0)" fill="rgb(88,87,87)" d="M 471.129 820.623 L 489.166 820.684 C 489.761 826.945 489.875 832.585 490.021 838.846 L 472.162 839.083 C 472.206 845.584 472.732 854.135 471.123 860.228 C 471.283 847.027 471.286 833.825 471.129 820.623 z"/>
<path transform="translate(0,0)" fill="rgb(64,64,64)" d="M 529.258 784.222 L 547.839 783.998 L 548.001 800.893 C 543.623 800.88 531.155 800.312 527.818 802.074 C 528.938 798.786 529.079 788.248 529.258 784.222 z"/>
<path transform="translate(0,0)" fill="rgb(88,87,87)" d="M 746.463 933.195 C 759.808 932.559 772.046 934.608 785.029 934.554 C 819.28 934.41 855.251 937.676 889.309 937.034 C 889.956 943.098 889.933 948.024 889.945 954.078 C 895.936 953.994 902.886 954.078 908.786 953.789 C 913.088 953.876 916.393 953.748 920.563 954.882 L 924.931 954.944 L 942.386 956.028 L 941.736 973.493 L 942.566 974.052 L 959.013 973.889 C 958.997 978.15 958.615 982.853 959.916 986.796 L 960.963 987.546 C 961.317 993.361 960.902 997.477 960.422 1003.31 C 959.925 1008.46 960.768 1007.17 958.059 1010.18 C 954.1 1011.75 948.398 1010.51 943.94 1009.96 L 943.878 1017.09 C 943.237 1015 943.011 1014.54 942.084 1012.65 C 936.581 1011.48 929.545 1012.22 924.153 1013.65 C 920.251 1016.24 909.566 1015.15 904.13 1014.99 L 903.945 1030.71 C 886.698 1032.58 876.219 1032.16 858.765 1031.19 L 840.393 1031.17 C 839.181 1038.26 839.185 1041.95 839.104 1049.05 C 820.88 1048.82 802.802 1048.02 784.585 1047.98 C 767.72 1046.95 746.745 1049.69 730.464 1047.17 C 740.84 1046.62 754.766 1047.17 765.404 1047.3 C 765.516 1041.88 766.006 1035.29 764.631 1030.17 L 763.387 1028.41 C 762.722 1023.58 761.972 1015.25 764.448 1011.06 C 767.186 1008.29 766.254 995.947 766.244 991.302 L 747.592 991.214 C 747.072 986.412 746.975 976.745 747.806 972.112 C 748.216 966.922 748.022 958.538 748.07 953.108 C 755.917 952.442 758.947 952.407 766.832 952.963 L 766.947 934.079 C 760.113 934.094 753.185 934.353 746.463 933.195 z"/>
<path transform="translate(0,0)" fill="rgb(116,115,115)" d="M 746.463 933.195 C 759.808 932.559 772.046 934.608 785.029 934.554 C 819.28 934.41 855.251 937.676 889.309 937.034 C 888.89 943.32 888.805 947.773 888.968 954.072 C 857.423 954.68 815.469 951.138 785.981 953.599 L 785.697 971.042 L 766.539 971.024 C 766.279 978.001 766.043 984.291 766.244 991.302 L 747.592 991.214 C 747.072 986.412 746.975 976.745 747.806 972.112 C 748.216 966.922 748.022 958.538 748.07 953.108 C 755.917 952.442 758.947 952.407 766.832 952.963 L 766.947 934.079 C 760.113 934.094 753.185 934.353 746.463 933.195 z"/>
<path transform="translate(0,0)" fill="rgb(64,64,64)" d="M 959.013 973.889 C 958.997 978.15 958.615 982.853 959.916 986.796 L 960.963 987.546 C 961.317 993.361 960.902 997.477 960.422 1003.31 C 959.925 1008.46 960.768 1007.17 958.059 1010.18 C 954.1 1011.75 948.398 1010.51 943.94 1009.96 L 943.878 1017.09 C 943.237 1015 943.011 1014.54 942.084 1012.65 C 936.581 1011.48 929.545 1012.22 924.153 1013.65 C 920.251 1016.24 909.566 1015.15 904.13 1014.99 L 903.945 1030.71 C 886.698 1032.58 876.219 1032.16 858.765 1031.19 C 859.124 1025.93 859.055 1019.35 859.147 1013.99 C 874.38 1014.1 888.607 1014.27 903.84 1015.05 C 905.127 1007.57 905.039 1002.63 905.095 995.128 C 911.513 995.247 918.445 995.733 924.897 996.059 L 925.466 982.181 C 936.343 982.977 939.675 985.071 941.736 973.493 L 942.566 974.052 L 959.013 973.889 z"/>
<path transform="translate(0,0)" fill="rgb(41,41,41)" d="M 959.013 973.889 C 958.997 978.15 958.615 982.853 959.916 986.796 L 960.963 987.546 C 961.317 993.361 960.902 997.477 960.422 1003.31 C 959.925 1008.46 960.768 1007.17 958.059 1010.18 C 954.1 1011.75 948.398 1010.51 943.94 1009.96 C 941.495 1005.78 942.069 1001.84 942.122 996.952 L 941.338 997.019 C 942.747 990.409 941.02 981.643 942.566 974.052 L 959.013 973.889 z"/>
<path transform="translate(0,0)" fill="rgb(24,24,24)" d="M 942.122 996.952 C 947.446 995.504 953.628 995.196 958.789 997.376 C 960.409 999.056 960.206 1000.88 960.422 1003.31 C 959.925 1008.46 960.768 1007.17 958.059 1010.18 C 954.1 1011.75 948.398 1010.51 943.94 1009.96 C 941.495 1005.78 942.069 1001.84 942.122 996.952 z"/>
<path transform="translate(0,0)" fill="rgb(41,41,41)" d="M 925.049 996.254 C 930.026 996.994 936.204 996.927 941.338 997.019 L 942.122 996.952 C 942.069 1001.84 941.495 1005.78 943.94 1009.96 L 943.878 1017.09 C 943.237 1015 943.011 1014.54 942.084 1012.65 C 936.581 1011.48 929.545 1012.22 924.153 1013.65 C 924.964 1008.35 924.921 1001.71 925.049 996.254 z"/>
<path transform="translate(0,0)" fill="rgb(64,64,64)" d="M 785.014 1029.93 C 796.388 1031.4 827.376 1031 840.393 1031.17 C 839.181 1038.26 839.185 1041.95 839.104 1049.05 C 820.88 1048.82 802.802 1048.02 784.585 1047.98 L 785.014 1029.93 z"/>
<path transform="translate(0,0)" fill="rgb(116,115,115)" d="M 889.196 955.123 C 898.879 954.652 910.686 954.945 920.563 954.882 L 924.931 954.944 L 924.505 971.911 C 912.903 971.97 901.301 971.937 889.7 971.813 L 889.196 955.123 z"/>
<path transform="translate(0,0)" fill="rgb(116,115,115)" d="M 767.027 812.786 C 778.303 813.309 858.257 816.627 861.361 815.186 C 865.405 815.274 871.698 815.224 875.472 815.867 C 901.429 815.357 892.643 824.974 901.692 829.787 L 904.033 829.603 C 905.167 831.049 905.538 831.414 906.366 833.092 C 914.333 838.056 922.189 828.988 923.704 844.906 L 924.222 846.214 L 924.267 848.473 C 925.502 852.704 925.201 858.467 925.196 863 L 942.433 864.219 L 942.339 880.332 C 948.649 880.289 952.916 880.085 959.177 881.334 C 960.278 891.945 960.362 945.429 959.285 956.062 L 942.386 956.028 L 924.931 954.944 L 920.563 954.882 C 916.393 953.748 913.088 953.876 908.786 953.789 C 908.282 949.036 908.406 941.052 908.331 936.051 C 902.875 935.994 896.819 935.367 891.334 934.922 C 890.694 930.009 890.181 925.079 889.796 920.139 L 874.637 918.929 L 871.557 918.811 C 865.412 919.163 856.467 918.346 850.002 918.136 L 805.332 916.953 L 804.885 901.183 C 804.483 893.675 802.696 873.176 804.779 867.071 L 805.369 865.896 L 796.519 866.104 L 785.763 865.663 L 785.771 848.843 C 785.225 845.234 785.171 835.17 785.042 831.078 L 767.163 830.826 L 767.027 812.786 z"/>
<path transform="translate(0,0)" fill="rgb(76,76,76)" d="M 804.885 901.183 C 804.483 893.675 802.696 873.176 804.779 867.071 L 804.875 883.186 L 823.189 883.54 L 822.991 900.992 C 834.313 901.704 843.245 902.102 854.556 901.924 C 860.062 904.923 858.128 911.563 858.104 917.713 C 862.423 917.841 867.455 917.763 871.557 918.811 C 865.412 919.163 856.467 918.346 850.002 918.136 L 805.332 916.953 L 804.885 901.183 z"/>
<path transform="translate(0,0)" fill="rgb(24,24,24)" d="M 824.06 831.976 L 843.071 832.827 C 843.055 837.047 843.402 846.208 842.203 849.786 L 824.334 849.801 L 823.762 865.068 C 819.589 866.537 810.396 865.906 805.369 865.896 L 796.519 866.104 L 785.763 865.663 L 785.771 848.843 L 804.552 848.971 L 823.866 848.72 C 823.678 842.732 823.785 837.966 824.06 831.976 z"/>
<path transform="translate(0,0)" fill="rgb(131,130,130)" d="M 875.472 815.867 C 901.429 815.357 892.643 824.974 901.692 829.787 L 904.033 829.603 C 905.167 831.049 905.538 831.414 906.366 833.092 C 889.424 834.301 878.404 833.775 861.31 832.662 C 861.297 827.391 861.576 821.786 861.746 816.491 C 866.699 816.535 870.523 816.267 875.472 815.867 z"/>
<path transform="translate(0,0)" fill="rgb(131,130,130)" d="M 904.377 845.201 C 910.952 844.973 917.105 844.745 923.704 844.906 L 924.222 846.214 L 924.267 848.473 C 925.502 852.704 925.201 858.467 925.196 863 L 942.433 864.219 L 942.339 880.332 C 948.649 880.289 952.916 880.085 959.177 881.334 C 958.672 885.112 958.482 890.582 958.227 894.518 L 958 881.999 L 941 882.161 C 941 877.41 941.622 873.771 940.939 868.909 C 937.913 864.523 930.541 863.497 926.411 865.738 C 926.017 869.322 925.185 881.809 927.107 884.375 C 932.11 886.469 933.917 884.521 938.732 884.967 C 944.33 885.486 939.95 890.902 942.914 894.922 L 949.86 895.082 L 951.358 896.789 L 952.067 896.653 L 949.677 895.057 L 953.371 895.646 L 953.004 896.42 C 952.449 896.511 951.893 896.595 951.335 896.672 C 947.463 897.207 944.11 897.574 940.945 895.178 L 940.318 888.325 C 936.029 882.502 933.672 888.561 927.137 886.452 C 923.14 881.074 924.315 872.001 924.504 865.19 C 917.85 865.723 913.952 865.691 907.263 865.405 C 907.204 856.922 906.72 853.356 904.377 845.201 z"/>
<path transform="translate(0,0)" fill="rgb(141,140,140)" d="M 924.267 848.473 C 923.812 850.22 924.111 849.636 922.885 850.953 C 918.158 850.511 910.745 850.244 907.303 846.852 C 913.682 846.153 917.765 846.15 924.222 846.214 L 924.267 848.473 z"/>
<path transform="translate(0,0)" fill="rgb(64,64,64)" d="M 804.947 831.825 L 824.06 831.976 C 823.785 837.966 823.678 842.732 823.866 848.72 L 804.552 848.971 C 805.107 844.349 804.92 836.698 804.947 831.825 z"/>
<path transform="translate(0,0)" fill="rgb(76,76,76)" d="M 908.331 936.051 L 925.229 936.2 L 924.931 954.944 L 920.563 954.882 C 916.393 953.748 913.088 953.876 908.786 953.789 C 908.282 949.036 908.406 941.052 908.331 936.051 z"/>
<path transform="translate(0,0)" fill="rgb(141,140,140)" d="M 824.334 849.801 L 842.203 849.786 C 841.601 855.101 840.739 861.302 840.5 866.569 C 836.686 866.653 826.26 867.549 823.762 865.068 L 824.334 849.801 z"/>
<path transform="translate(0,0)" fill="rgb(88,87,87)" d="M 854.556 901.924 L 873.389 902.799 C 873.264 909.596 873.55 912.193 874.637 918.929 L 871.557 918.811 C 867.455 917.763 862.423 917.841 858.104 917.713 C 858.128 911.563 860.062 904.923 854.556 901.924 z"/>
<path transform="translate(0,0)" fill="rgb(255,255,255)" d="M 690.798 941.481 C 695.376 941.84 705.097 943.359 708.578 940.722 C 710.107 929.998 715.278 932.125 724.307 931.987 C 731.624 931.875 739.177 932.476 746.463 933.195 C 753.185 934.353 760.113 934.094 766.947 934.079 L 766.832 952.963 C 758.947 952.407 755.917 952.442 748.07 953.108 C 748.022 958.538 748.216 966.922 747.806 972.112 C 746.975 976.745 747.072 986.412 747.592 991.214 L 766.244 991.302 C 766.254 995.947 767.186 1008.29 764.448 1011.06 L 747.137 1011.1 C 707.688 1011.43 668.237 1011.34 628.789 1010.86 C 628.557 1006.24 628.176 1002.56 627.606 997.96 C 632.39 995.064 634.967 989.076 638.49 986.792 C 642.547 984.162 647.56 984.616 651.681 980.062 C 651.673 976.864 651.616 976.251 652.35 973.185 C 657.54 970.42 664.419 974.969 670.411 971.852 C 671.967 969.275 671.089 961.994 671.046 958.254 C 674.525 952.054 682.612 957.755 689.762 954.55 C 691.19 951.593 690.79 945.078 690.798 941.481 z"/>
<path transform="translate(0,0)" fill="url(#Gradient3)" d="M 730.021 991.067 C 729.753 984.572 728.459 978.1 732.035 973.215 C 735.733 971.253 743.277 971.99 747.806 972.112 C 746.975 976.745 747.072 986.412 747.592 991.214 C 741.174 990.904 736.518 990.736 730.021 991.067 z"/>
<path transform="translate(0,0)" fill="rgb(196,195,195)" d="M 614.692 1008.41 C 618.226 1010.72 624.38 1010.59 628.789 1010.86 C 668.237 1011.34 707.688 1011.43 747.137 1011.1 L 764.448 1011.06 C 761.972 1015.25 762.722 1023.58 763.387 1028.41 L 764.631 1030.17 C 766.006 1035.29 765.516 1041.88 765.404 1047.3 C 754.766 1047.17 740.84 1046.62 730.464 1047.17 C 724.128 1046.84 715.721 1046.99 709.228 1046.91 L 690.901 1046.71 L 690.766 1030.09 C 657.501 1029.41 624.228 1029.11 590.955 1029.19 L 591.007 1011.2 C 598.447 1011.36 609.097 1012.76 614.692 1008.41 z"/>
<path transform="translate(0,0)" fill="rgb(154,153,153)" d="M 690.766 1030.09 L 708.868 1029.99 L 709.228 1046.91 L 690.901 1046.71 L 690.766 1030.09 z"/>
<path transform="translate(0,0)" fill="rgb(116,115,115)" d="M 747.137 1011.1 L 764.448 1011.06 C 761.972 1015.25 762.722 1023.58 763.387 1028.41 L 764.631 1030.17 C 759.626 1029.69 752.915 1029.58 747.762 1029.34 C 747.775 1023.54 747.363 1016.95 747.137 1011.1 z"/>
<path transform="translate(0,0)" fill="rgb(116,115,115)" d="M 691.487 714.033 L 709.956 714.585 C 710.142 726.628 710.195 738.672 710.116 750.715 C 710.082 756.278 710.215 762.772 709.986 768.246 L 708.735 767.813 C 703.007 768.033 697.273 768.109 691.54 768.04 L 691.022 784.061 C 685.962 783.972 676.136 783.228 671.88 785.014 L 671.297 785.301 L 658.388 784.701 C 655.982 784.412 655.062 784.493 652.999 783.161 C 650.745 778.462 651.774 772.267 651.963 766.733 L 652.02 749.75 L 671.138 749.227 C 671.942 744.588 671.83 736.028 671.915 731.05 C 678.264 731.037 684.628 731.386 690.973 731.669 C 690.946 725.686 690.795 719.995 691.487 714.033 z"/>
<path transform="translate(0,0)" fill="rgb(196,195,195)" d="M 691.022 767.167 C 695.703 767.102 704.445 766.809 708.735 767.813 C 703.007 768.033 697.273 768.109 691.54 768.04 L 691.022 784.061 C 685.962 783.972 676.136 783.228 671.88 785.014 L 671.297 785.301 C 670.983 779.931 671.313 773.007 671.422 767.513 C 677.957 767.491 684.491 767.376 691.022 767.167 z"/>
<path transform="translate(0,0)" fill="rgb(154,153,153)" d="M 690.997 750.123 L 710.116 750.715 C 710.082 756.278 710.215 762.772 709.986 768.246 L 708.735 767.813 C 704.445 766.809 695.703 767.102 691.022 767.167 L 690.997 750.123 z"/>
<path transform="translate(0,0)" fill="rgb(76,76,76)" d="M 729.134 794.236 C 738.399 794.956 749.741 793.446 757.41 794.849 C 752.641 794.995 751.966 794.205 748.598 796.6 C 746.518 800.23 747.422 807.6 747.38 812.46 C 753.151 812.409 761.504 812.081 767.027 812.786 L 767.163 830.826 L 785.042 831.078 C 785.171 835.17 785.225 845.234 785.771 848.843 L 785.763 865.663 C 779.77 865.245 773.22 865.119 767.172 864.879 C 759.714 864.699 755.269 864.499 747.788 863.488 L 747.144 847.145 C 741.868 846.471 735.596 846.572 730.204 846.509 C 728.905 830.185 729.025 810.676 729.134 794.236 z"/>
<path transform="translate(0,0)" fill="rgb(116,115,115)" d="M 489.345 730.672 C 493.408 732.735 502.141 731.889 507.179 731.765 C 507.535 736.976 507.798 744.082 508.434 749.113 C 507.171 761.915 509.237 772.309 508.845 784.972 L 508.952 802.035 C 502.851 802.113 495.923 802.04 489.904 802.465 C 489.915 790.644 489.683 778.823 489.209 767.012 L 470.673 766.967 L 470.67 748.934 L 470.86 731.348 C 477.043 731.444 483.226 731.468 489.41 731.422 L 489.345 730.672 z"/>
<path transform="translate(0,0)" fill="rgb(141,140,140)" d="M 470.67 748.934 C 476.592 749.09 483.202 749.111 489.056 749.471 C 489.099 755.11 488.995 761.442 489.209 767.012 L 470.673 766.967 L 470.67 748.934 z"/>
<path transform="translate(0,0)" fill="rgb(41,41,41)" d="M 489.345 730.672 C 493.408 732.735 502.141 731.889 507.179 731.765 C 507.535 736.976 507.798 744.082 508.434 749.113 L 489.655 749.32 C 489.905 742.44 489.958 738.294 489.41 731.422 L 489.345 730.672 z"/>
<path transform="translate(0,0)" fill="url(#Gradient2)" d="M 757.41 794.849 C 786.68 797.174 816.259 796.936 845.54 799.243 C 850.95 799.669 855.7 800 861.177 799.984 L 861.361 815.186 C 858.257 816.627 778.303 813.309 767.027 812.786 C 761.504 812.081 753.151 812.409 747.38 812.46 C 747.422 807.6 746.518 800.23 748.598 796.6 C 751.966 794.205 752.641 794.995 757.41 794.849 z"/>
<path transform="translate(0,0)" fill="rgb(41,41,41)" d="M 767.172 864.879 C 773.22 865.119 779.77 865.245 785.763 865.663 L 796.519 866.104 L 805.369 865.896 L 804.779 867.071 C 802.696 873.176 804.483 893.675 804.885 901.183 C 798.544 901.179 792.204 900.982 785.874 900.593 L 784.906 916.186 L 767.086 915.919 L 767.367 883.359 C 763.786 883.085 760.461 882.616 756.916 882.132 C 760.485 882.305 762.932 882.887 765.858 881.062 C 768.235 877.533 767.227 869.763 767.172 864.879 z"/>
<path transform="translate(0,0)" fill="rgb(64,64,64)" d="M 796.519 866.104 L 805.369 865.896 L 804.779 867.071 C 802.696 873.176 804.483 893.675 804.885 901.183 C 798.544 901.179 792.204 900.982 785.874 900.593 C 785.827 890.933 785.393 877.385 786.304 868.087 C 788.212 866.48 793.701 866.387 796.519 866.104 z"/>
<path transform="translate(0,0)" fill="rgb(255,255,255)" d="M 708.735 767.813 L 709.986 768.246 C 710.113 775.252 712.009 822.901 709.325 826.089 C 704.235 823.905 697.006 823.858 691.441 823.72 C 691.428 821.985 691.457 817.321 691.29 815.882 C 688.396 790.887 670.528 821 671.88 785.014 C 676.136 783.228 685.962 783.972 691.022 784.061 L 691.54 768.04 C 697.273 768.109 703.007 768.033 708.735 767.813 z"/>
<path transform="translate(0,0)" fill="rgb(255,255,255)" d="M 470.673 766.967 L 489.209 767.012 C 489.683 778.823 489.915 790.644 489.904 802.465 C 489.821 807.51 489.871 813.266 489.617 818.239 L 489.166 820.684 L 471.129 820.623 L 470.673 766.967 z"/>
<path transform="translate(0,0)" fill="rgb(64,64,64)" d="M 510.712 991.987 C 522.767 992.643 534.838 992.973 546.911 992.978 L 547.092 1011.12 L 510.525 1010.89 L 510.712 991.987 z"/>
<path transform="translate(0,0)" fill="rgb(64,64,64)" d="M 730.204 846.509 C 735.596 846.572 741.868 846.471 747.144 847.145 L 747.788 863.488 C 755.269 864.499 759.714 864.699 767.172 864.879 C 767.227 869.763 768.235 877.533 765.858 881.062 C 762.932 882.887 760.485 882.305 756.916 882.132 L 747.927 881.839 C 747.785 875.986 747.892 869.859 747.904 863.982 C 741.848 863.54 736.607 862.807 730.63 861.949 C 730.855 857.6 731.666 850.261 730.204 846.509 z"/>
<path transform="translate(0,0)" fill="rgb(64,64,64)" d="M 651.963 766.733 C 651.774 772.267 650.745 778.462 652.999 783.161 C 655.062 784.493 655.982 784.412 658.388 784.701 C 653.705 785.07 651.482 784.419 651.646 790.753 C 651.747 794.625 652.305 797.636 651.995 801.6 C 650.551 798.347 650.93 790.032 650.905 786.007 C 645.458 786.232 636.999 786.645 631.921 785.444 C 629.793 784.983 618.748 784.45 615.496 784.15 C 620.206 783.652 627.777 783.864 632.717 783.855 L 632.84 766.871 L 651.963 766.733 z"/>
<path transform="translate(0,0)" fill="rgb(64,64,64)" d="M 547.092 1011.12 C 554.143 1011.27 561.837 1011.28 568.825 1011.61 C 568.667 1017.92 568.555 1024.23 568.488 1030.55 C 562.94 1029.43 553.245 1030.36 546.177 1029.44 C 547.598 1025.66 547.106 1015.67 547.092 1011.12 z"/>
<path transform="translate(0,0)" fill="rgb(64,64,64)" d="M 508.434 749.113 C 509.725 753.459 509.209 761.476 509.133 766.288 L 527.662 766.112 C 527.714 772.047 527.678 778.193 527.829 784.104 C 521.962 784.114 514.455 783.84 508.845 784.972 C 509.237 772.309 507.171 761.915 508.434 749.113 z"/>
<path transform="translate(0,0)" fill="rgb(64,64,64)" d="M 672.34 713.216 C 679.202 713.87 683.995 713.868 690.824 713.825 L 691.487 714.033 C 690.795 719.995 690.946 725.686 690.973 731.669 C 684.628 731.386 678.264 731.037 671.915 731.05 C 671.83 736.028 671.942 744.588 671.138 749.227 C 670.564 742.791 670.639 737.396 671.189 730.992 C 672.202 726.452 672.185 718.151 672.34 713.216 z"/>
<path transform="translate(0,0)" fill="rgb(41,41,41)" d="M 652.703 730.963 L 671.189 730.992 C 670.639 737.396 670.564 742.791 671.138 749.227 L 652.02 749.75 C 652.509 743.801 652.537 736.99 652.703 730.963 z"/>
<path transform="translate(0,0)" fill="rgb(64,64,64)" d="M 785.874 900.593 C 792.204 900.982 798.544 901.179 804.885 901.183 L 805.332 916.953 C 798.147 916.917 792.047 916.636 784.906 916.186 L 785.874 900.593 z"/>
<path transform="translate(0,0)" fill="rgb(64,64,64)" d="M 692.15 696.688 L 709.003 697.129 C 709.329 702.844 709.784 708.897 709.956 714.585 L 691.487 714.033 L 690.824 713.825 L 692.15 696.688 z"/>
<path transform="translate(0,0)" fill="rgb(64,64,64)" d="M 942.386 956.028 L 959.285 956.062 C 959.115 962.003 959.024 967.946 959.013 973.889 L 942.566 974.052 L 941.736 973.493 L 942.386 956.028 z"/>
<path transform="translate(0,0)" fill="rgb(64,64,64)" d="M 470.773 715.993 C 478.157 716.037 481.54 716.278 488.827 717.416 L 489.345 730.672 L 489.41 731.422 C 483.226 731.468 477.043 731.444 470.86 731.348 L 470.773 715.993 z"/>
<path transform="translate(0,0)" fill="rgb(41,41,41)" d="M 614.692 1008.41 L 616.307 1007.29 L 619.906 1008.16 L 620.702 1007.06 C 619.881 1002.77 618.996 1001.49 622.486 998.786 C 624.645 998.86 625.55 998.888 627.606 997.96 C 628.176 1002.56 628.557 1006.24 628.789 1010.86 C 624.38 1010.59 618.226 1010.72 614.692 1008.41 z"/>
<path transform="translate(0,0)" fill="rgb(64,64,64)" d="M 471.953 974.437 C 482.123 973.338 497.639 973.927 507.905 975.299 L 508.638 991.515 C 502.447 991.658 496.071 991.892 489.898 991.939 L 489.206 1010.16 L 470.754 1010.93 C 470.777 1005.1 470.375 978.052 471.953 974.437 z"/>
<path transform="translate(0,0)" fill="rgb(41,41,41)" d="M 471.953 974.437 C 482.123 973.338 497.639 973.927 507.905 975.299 L 508.638 991.515 C 502.447 991.658 496.071 991.892 489.898 991.939 L 489.849 974.636 C 484.243 974.854 477.361 975.41 471.953 974.437 z"/>
<path transform="translate(0,0)" fill="rgb(64,64,64)" d="M 1189.93 993.063 C 1189.82 988.904 1189.22 984.261 1191.16 980.7 C 1194.48 978.529 1194.43 979.313 1199.02 979.673 C 1204.28 975.249 1202.54 959.954 1204.04 959.574 C 1214.28 956.971 1207.6 941.839 1213.07 933.982 C 1215.16 930.969 1218.43 930.251 1222.12 928.953 C 1225.8 920.986 1227.1 898.731 1229.62 887.695 C 1231.11 886.653 1234.96 884.03 1235.43 882.367 C 1242.36 857.725 1244.87 831.631 1250.35 806.638 C 1251.6 800.958 1255.28 801.07 1256.45 794.484 C 1258.72 781.717 1260.17 768.531 1262.63 755.836 C 1263.05 753.35 1268.11 755.012 1268.59 752.369 C 1273.74 724.477 1279.18 696.851 1282.61 668.668 C 1284.69 665.325 1295.05 666.74 1295.62 662.208 C 1300.56 622.728 1292.7 630.817 1332.16 633.107 C 1332.05 637.849 1331.64 642.854 1331.33 647.612 L 1350.97 651.066 C 1350.83 656.517 1351.21 662.215 1351.47 667.683 C 1356.32 668.923 1366.78 669.931 1369.78 673.388 C 1367.88 679.353 1368.81 681.49 1373.43 686.05 C 1378.63 688.531 1379.33 685.067 1384.11 687.592 C 1387.36 692.648 1386.81 697.639 1387.01 703.739 C 1391.05 703.926 1394.88 704.566 1398.87 705.155 C 1401.03 735.02 1402.9 765.618 1406.84 795.371 C 1407.22 798.266 1410.96 797.977 1413.15 799.081 C 1415.74 835.337 1417.09 866.689 1426.69 901.936 C 1429.91 913.767 1428.1 930.509 1432.1 944.389 C 1434.38 946.881 1433.93 946.11 1438.04 946.928 C 1440.44 949.665 1439.5 960.511 1442.75 966.903 C 1445.92 969.707 1451.52 970.87 1455.74 972.099 C 1457 996.918 1466.48 980.543 1472.17 989.934 C 1483.39 1008.46 1461.76 1007.04 1453.15 1006.09 C 1453.02 1010.79 1452.66 1015.76 1452.4 1020.48 C 1444.61 1020.5 1426.25 1019.4 1418.99 1017.52 C 1416.82 1013.56 1420.13 1013.48 1417.88 1008.73 C 1406.74 1006.53 1396.64 1003.15 1385.79 1002.79 C 1386.41 990.258 1385.85 973.237 1385.51 960.518 C 1380.2 956.923 1378.16 958.264 1373.06 956.523 C 1368.22 954.874 1371.3 949.502 1369.78 946.288 C 1365.59 944.125 1357.23 943.657 1352.24 943.088 C 1352.12 938.229 1352.89 934.012 1350.35 930.652 C 1346.95 929.584 1345.26 929.445 1341.79 928.998 C 1338.84 928.821 1333.02 926.628 1329.99 925.612 L 1329.95 913.455 L 1309.22 910.763 C 1308.86 915.203 1308.57 920.421 1308.02 924.771 L 1287.95 923.73 C 1287.51 927.989 1286.97 932.457 1286.62 936.7 C 1280.02 935.932 1272.92 934.869 1266.32 935.113 C 1265.28 940.535 1264.32 945.261 1263.81 950.793 C 1268.87 951.223 1282.37 951.136 1284.49 953.24 C 1284.42 959.269 1282.28 956.984 1284.28 961.978 C 1289.67 966.47 1295.15 966.272 1302.12 967.024 L 1302.18 979.771 L 1315.29 980.862 L 1318.33 981.473 C 1319.21 982.878 1319.6 984.222 1320.79 984.453 C 1326.55 985.573 1334.03 985.104 1340.01 985.019 L 1341.24 986.04 L 1347.4 985.315 L 1350.56 986.153 C 1352.41 988.721 1351.2 996.019 1350.89 999.52 C 1357.25 1000.71 1364.71 999.861 1368.74 1002.24 C 1370.93 1006.19 1370.11 1007.28 1370.13 1012.45 C 1374.99 1012.58 1381.77 1012.01 1385.22 1015.04 C 1387.13 1018.77 1386.27 1023.41 1386.02 1027.82 C 1382.85 1027.9 1324.81 1022.41 1323.7 1021.98 C 1322.77 1019.34 1322.69 1018.6 1320.91 1016.53 C 1316.19 1016.06 1312.08 1016.04 1307.36 1016.1 C 1262.33 1016.64 1216.98 1011.73 1172.08 1009.62 C 1172.57 1004.06 1172.7 998.226 1172.92 992.622 L 1189.93 993.063 z"/>
<path transform="translate(0,0)" fill="rgb(255,255,255)" d="M 1379.17 868.344 C 1383.83 868.789 1389.31 869.456 1393.93 869.429 C 1395.11 893.319 1398.28 933.461 1401.82 957.324 C 1397.85 957.263 1391.12 956.97 1387.41 957.342 L 1385.51 960.518 C 1380.2 956.923 1378.16 958.264 1373.06 956.523 C 1368.22 954.874 1371.3 949.502 1369.78 946.288 C 1365.59 944.125 1357.23 943.657 1352.24 943.088 C 1352.12 938.229 1352.89 934.012 1350.35 930.652 C 1346.95 929.584 1345.26 929.445 1341.79 928.998 C 1345.53 927.996 1348.54 929.105 1351.29 925.672 C 1355.54 920.37 1351.6 916.049 1346.46 913.041 C 1341.46 912.653 1337.93 912.365 1333.01 911.439 L 1334.13 897.031 C 1341.82 898.233 1349.03 897.546 1355.72 898.801 C 1356.25 893.404 1357.02 887.141 1357.31 881.8 C 1362.37 881.971 1372.47 883.092 1376.34 881.245 C 1380.03 876.973 1379.22 874.388 1379.17 868.344 z"/>
<path transform="translate(0,0)" fill="rgb(76,76,76)" d="M 1346.46 913.041 C 1350.84 913.868 1351.24 913.141 1353.61 916.011 C 1354.76 920.587 1353.76 923.761 1353.92 928.433 C 1359.87 928.768 1366.87 929.344 1372.75 929.414 L 1372.89 942.728 C 1377.9 943.32 1383.15 944.028 1388.14 944.519 C 1387.88 947.48 1387.05 954.736 1387.41 957.342 L 1385.51 960.518 C 1380.2 956.923 1378.16 958.264 1373.06 956.523 C 1368.22 954.874 1371.3 949.502 1369.78 946.288 C 1365.59 944.125 1357.23 943.657 1352.24 943.088 C 1352.12 938.229 1352.89 934.012 1350.35 930.652 C 1346.95 929.584 1345.26 929.445 1341.79 928.998 C 1345.53 927.996 1348.54 929.105 1351.29 925.672 C 1355.54 920.37 1351.6 916.049 1346.46 913.041 z"/>
<path transform="translate(0,0)" fill="rgb(76,76,76)" d="M 1315.29 980.862 L 1318.33 981.473 C 1319.21 982.878 1319.6 984.222 1320.79 984.453 C 1326.55 985.573 1334.03 985.104 1340.01 985.019 L 1341.24 986.04 C 1339.45 986.112 1337.74 986.336 1335.96 986.541 C 1333.5 990.237 1334.21 994.031 1333.88 999.224 C 1328.81 999.842 1321.58 999.929 1316.33 1000.15 C 1315.5 992.719 1315.01 988.461 1315.29 980.862 z"/>
<path transform="translate(0,0)" fill="rgb(255,255,255)" d="M 1319.57 812.613 C 1326.34 812.875 1332.93 812.917 1339.57 814.29 C 1339.43 848.88 1361.23 815.298 1358.78 846.667 C 1365.91 848.222 1371.03 849.296 1378.34 850.155 L 1378.25 866.169 C 1371.53 865.518 1363.82 863.635 1358.78 867.646 C 1358.05 872.511 1358.82 874.689 1357.27 879.747 L 1356.38 880.523 C 1350.68 880.051 1341.69 878.473 1337.04 880.9 C 1333.13 884.718 1333.61 889.36 1333.13 895.057 C 1326.56 895.051 1316.43 896.07 1311.86 891.5 C 1309.97 885.248 1314.94 882.24 1307.89 878.279 C 1304.79 876.54 1296.85 876.241 1293.01 875.936 L 1292.85 862.356 C 1287.16 861.943 1281.31 861.633 1275.69 860.741 C 1277.31 837.602 1276.4 842.36 1296.63 842.067 L 1297.02 826.856 C 1302.28 827.082 1311.48 828.379 1315.76 826.494 C 1319.93 822.529 1319.24 818.626 1319.57 812.613 z"/>
<path transform="translate(0,0)" fill="rgb(255,255,255)" d="M 1326.69 664.034 C 1333.25 665.275 1337.59 663.524 1341.21 669.58 C 1349.82 670.493 1349.97 674.816 1351.02 683.06 C 1356.02 685.227 1362.59 687.13 1367.88 688.823 L 1367.08 707.735 L 1351.95 707.683 L 1351.74 724.599 L 1369.01 726.387 L 1369.17 742.427 C 1348.83 741.744 1324.16 736.813 1302.06 736.003 C 1305.25 722.582 1308.6 700.225 1311.65 689.816 C 1314.49 689.164 1318.21 688.998 1320.25 686.766 C 1326 680.464 1326.4 672.104 1326.69 664.034 z"/>
<path transform="translate(0,0)" fill="rgb(76,76,76)" d="M 1341.21 669.58 C 1349.82 670.493 1349.97 674.816 1351.02 683.06 C 1346.6 681.307 1343.86 683.094 1339.52 680.123 C 1338.34 676.787 1340.07 673.219 1341.21 669.58 z"/>
<path transform="translate(0,0)" fill="rgb(255,255,255)" d="M 1263.42 874.116 C 1267.51 874.427 1271.4 874.473 1275.22 875.922 C 1278.36 877.749 1278.88 877.661 1282.53 877.264 C 1286.53 877.134 1287.15 876.468 1290.28 878.259 C 1292.24 881.901 1290.81 889.853 1290.62 894.825 C 1297.36 894.6 1302.69 894.923 1309.38 895.322 C 1309.19 899.677 1308.78 905.351 1308.84 909.594 C 1302.19 909.501 1296.93 909.139 1290.37 908.567 C 1287.19 912.349 1289.05 917.935 1286.08 921.371 L 1267.25 920.104 C 1267.01 924.892 1267.28 929.661 1264.93 933.761 C 1261.29 933.393 1256.36 933.31 1253.33 931.627 C 1253.36 926.42 1262.07 881.697 1263.42 874.116 z"/>
<path transform="translate(0,0)" fill="rgb(196,195,195)" d="M 1275.22 875.922 C 1278.36 877.749 1278.88 877.661 1282.53 877.264 C 1282.9 883.421 1283.59 886.561 1281.01 892.278 L 1279.14 892.701 C 1274.96 888.103 1275.49 881.923 1275.22 875.922 z"/>
<path transform="translate(0,0)" fill="rgb(255,255,255)" d="M 1303.28 753.093 C 1324.25 755.066 1346.33 759.039 1367.08 760.28 C 1366.72 764.463 1366.7 770.379 1364.62 773.744 C 1359.18 777.409 1354.87 775.463 1347.44 775.815 C 1345.93 778.748 1344.48 786.956 1341.48 792.654 C 1338.4 794.258 1325.7 793.394 1323.01 791.126 C 1321.47 786.371 1321.78 779.865 1321.74 774.73 C 1303.23 773.462 1301.88 771.897 1303.28 753.093 z"/>
<path transform="translate(0,0)" fill="rgb(255,255,255)" d="M 1366.08 775.857 C 1371.4 776.83 1375.43 776.92 1380.84 777.15 C 1380.39 789.854 1387.1 841.299 1383.29 846.205 C 1376.17 844.573 1383.07 838.157 1376.39 830.748 C 1359.59 831.925 1361 828.15 1359.83 813.852 C 1354.52 812.94 1348.03 812.471 1342.58 811.935 L 1343.72 796.177 C 1346.34 796.536 1352.89 797.276 1355.3 797.199 C 1357.97 797.101 1360.5 795.919 1362.28 793.925 C 1365.97 789.879 1366.16 780.995 1366.08 775.857 z"/>
<path transform="translate(0,0)" fill="rgb(255,255,255)" d="M 1287.94 772.556 C 1292.12 773.305 1298.24 774.595 1302.3 775.038 C 1302.26 780.628 1302.11 786.598 1302.35 792.152 L 1320 794.518 C 1319.38 799.6 1318.82 805.099 1318.05 810.123 C 1304.36 809.062 1297.73 806.278 1297.08 822.745 C 1297.03 824.115 1297.01 825.486 1297.02 826.856 C 1291.09 826.108 1285.52 826.068 1279.56 825.927 C 1281.64 808.974 1286.86 788.317 1287.94 772.556 z"/>
<path transform="translate(0,0)" fill="rgb(255,255,255)" d="M 1244.67 950.149 L 1261.19 952.299 C 1261.1 959.355 1260.31 965.803 1259.55 972.79 C 1263.77 973.227 1280.97 974.471 1281 976.106 C 1281.22 986.585 1291.99 977.016 1299.52 985.495 C 1299.67 988.562 1299.28 988.855 1297.73 991.673 L 1294.77 991.808 C 1276.91 990.79 1256.2 984.856 1237.6 983.04 C 1240.08 972.716 1243.32 960.491 1244.67 950.149 z"/>
<path transform="translate(0,0)" fill="rgb(154,153,153)" d="M 1438.95 982.703 C 1444.37 985.192 1447.81 986.285 1453.55 988.064 C 1453.65 991.895 1453.08 996.228 1452.71 1000.09 C 1447.4 1001.4 1443.88 1003.49 1439.7 999.518 C 1438.03 995.64 1438.8 987.284 1438.95 982.703 z"/>
<path transform="translate(0,0)" fill="rgb(64,64,64)" d="M 1487.65 891.991 C 1496.51 891.595 1521.84 890.798 1525.59 899.578 L 1524.31 902.133 L 1524.72 903.259 C 1550.35 907.403 1581.83 905.256 1608.11 908.38 C 1621.14 909.927 1619.75 917.547 1623.42 918.52 C 1640.65 923.095 1661.36 920.868 1679.12 923.562 C 1686.28 924.642 1684.77 929.026 1689.52 932.555 C 1698.77 934.855 1709.03 933.335 1718.51 935.166 C 1724.96 936.412 1727.14 945.48 1730.81 946.244 C 1739.26 948.008 1761.35 946.8 1768.22 950.869 C 1768 954.067 1767.96 954.494 1768.51 957.623 C 1773.11 961.862 1778.32 959.526 1784.88 962.789 C 1784.92 967.376 1780.04 1012.65 1778.78 1014.15 C 1774.26 1014.88 1769.69 1013.58 1765.16 1012.66 C 1764.88 1025.75 1762.76 1033.09 1761.81 1045.44 C 1742.98 1045.74 1722.74 1044.89 1703.73 1044.57 C 1691.4 1043.28 1670.37 1045.09 1661.03 1043.03 C 1651.99 1032.35 1635.89 1039.94 1624.08 1037.18 C 1610.21 1033.93 1596.3 1049.25 1591.74 1032.36 C 1586.51 1028.19 1538.98 1031.41 1530.98 1028.91 C 1519.08 1025.18 1488.01 1025.21 1478.43 1021.23 C 1477.51 1017.77 1478.23 1009.93 1478.43 1005.97 L 1489.2 1005.78 C 1489.94 1002.17 1490.13 997.79 1490.96 994.48 C 1493.77 983.331 1498.95 973.567 1489.9 963.436 L 1489.03 962.473 C 1485.96 959.027 1482.28 958.395 1477.8 957.033 C 1477.85 954.503 1477.7 948.028 1478.29 945.961 C 1481.52 934.524 1488.77 936.969 1496.33 933.15 C 1497.84 930.979 1499.95 920.281 1501.28 916.111 C 1496.21 915.792 1490.88 915.239 1485.79 914.798 C 1483.52 921.999 1480.85 928.635 1478.5 935.733 C 1473.24 935.242 1466.51 933.489 1461.23 932.285 C 1461.26 931.238 1461.48 923.729 1461.59 923.503 C 1464.51 917.531 1468.69 915.603 1468.68 907.821 C 1468.67 903.907 1481.3 905.927 1484.33 904.286 C 1486.63 901.152 1486.98 896.064 1487.65 891.991 z"/>
<path transform="translate(0,0)" fill="rgb(255,255,255)" d="M 1612.15 936.231 C 1626.74 938.098 1637.18 936.687 1654.3 939.582 C 1651.72 955.895 1653.23 959.266 1667.15 963.894 C 1669.7 964.74 1667.7 978.579 1667.57 981.969 C 1669.2 983.435 1669.45 983.648 1670.85 985.472 L 1670.12 987.989 C 1667.86 992.349 1669.33 993.62 1669.18 999.214 C 1673.49 999.717 1676.4 999.743 1680.15 1001.94 C 1682.29 1004.93 1681.75 1003.52 1681.99 1007.41 C 1675.99 1016.88 1645.79 1008.74 1634.16 1009.01 C 1628.07 1008.5 1604.76 1008.3 1601.26 1006.28 C 1591.87 1006.05 1583.57 1005.39 1574.21 1004.59 C 1575.34 1000.63 1576.34 996.019 1577.31 991.974 C 1582.94 993.06 1590.29 993.715 1596.03 993.847 C 1601.12 988.479 1596.95 982.25 1594.07 976.889 C 1595.61 967.724 1598.46 967.674 1603.46 962.002 C 1604.47 960.847 1602.02 955.446 1606.07 950.073 C 1608.64 949.267 1609.05 949.25 1611.16 947.666 C 1612.72 944.153 1612.22 940.207 1612.15 936.231 z"/>
<path transform="translate(0,0)" fill="rgb(116,115,115)" d="M 1601.26 1006.28 C 1605.08 1006.23 1607.33 1006.66 1610.31 1004.42 C 1612.78 997.983 1608.87 1000.78 1612.27 996.924 C 1619.38 994.691 1626.52 995.713 1634.09 996.034 L 1634.16 1009.01 C 1628.07 1008.5 1604.76 1008.3 1601.26 1006.28 z"/>
<path transform="translate(0,0)" fill="rgb(116,115,115)" d="M 1669.18 999.214 C 1666.45 1000.75 1661.87 1000.04 1659.3 998.358 C 1656.52 994.09 1656.89 989.154 1657.54 984.325 C 1665.94 982.162 1664.3 986.513 1670.12 987.989 C 1667.86 992.349 1669.33 993.62 1669.18 999.214 z"/>
<path transform="translate(0,0)" fill="rgb(255,255,255)" d="M 1528.16 919.836 C 1538.22 920.022 1554.25 919.256 1563.54 920.809 L 1565.03 921.655 C 1570.68 921.792 1589.81 921.751 1594.31 923.714 C 1595.61 928.909 1595.12 930.028 1595.85 934.238 C 1596.3 937.862 1596.5 936.404 1594.38 939.921 C 1589.46 942.449 1590.34 940.935 1587.95 946.103 C 1585.04 952.416 1581.05 975.916 1577.07 979.24 C 1575.57 982.054 1576.02 987.389 1576 990.863 C 1573.4 990.552 1566.2 989.829 1564.07 989.227 C 1556.46 991.01 1557.86 996.079 1557.48 1003.22 C 1549.68 1003.09 1541.88 1002.67 1534.11 1001.96 C 1525.55 1002.95 1510.5 1003.08 1506.03 993.936 C 1507.61 986.432 1516.1 987.734 1522.23 987.779 C 1527.13 974.762 1524.87 972.867 1541.77 978.677 C 1541.95 975.278 1542.78 970.047 1543.26 966.576 C 1539.5 962.493 1534.68 969.446 1526.82 967.418 C 1520.71 961.237 1532.7 941.677 1528.86 934.122 C 1527.35 930.328 1527.99 924.122 1528.16 919.836 z"/>
<path transform="translate(0,0)" fill="rgb(141,140,140)" d="M 1528.16 919.836 C 1538.22 920.022 1554.25 919.256 1563.54 920.809 L 1565.03 921.655 C 1565.14 927.403 1562.66 944.417 1563.08 946.943 C 1562.98 947.459 1562.6 949.59 1562.42 949.914 C 1557.6 945.164 1553.18 949.921 1547.69 947.8 C 1545.22 944.655 1545.95 944.553 1545.66 940.068 L 1546.53 934.673 C 1540.41 934.139 1534.98 934.149 1528.86 934.122 C 1527.35 930.328 1527.99 924.122 1528.16 919.836 z"/>
<path transform="translate(0,0)" fill="rgb(76,76,76)" d="M 1528.16 919.836 C 1538.22 920.022 1554.25 919.256 1563.54 920.809 C 1559.23 920.859 1554.7 920.981 1550.41 920.883 C 1550.03 925.03 1549.89 930.009 1548.35 933.727 L 1546.53 934.673 C 1540.41 934.139 1534.98 934.149 1528.86 934.122 C 1527.35 930.328 1527.99 924.122 1528.16 919.836 z"/>
<path transform="translate(0,0)" fill="rgb(76,76,76)" d="M 1528.86 934.122 C 1534.98 934.149 1540.41 934.139 1546.53 934.673 L 1545.66 940.068 C 1544.76 948.707 1544.53 957.189 1544.21 965.862 L 1543.26 966.576 C 1539.5 962.493 1534.68 969.446 1526.82 967.418 C 1520.71 961.237 1532.7 941.677 1528.86 934.122 z"/>
<path transform="translate(0,0)" fill="url(#Gradient1)" d="M 1565.03 921.655 C 1570.68 921.792 1589.81 921.751 1594.31 923.714 C 1595.61 928.909 1595.12 930.028 1595.85 934.238 C 1588.98 933.436 1585.35 933.054 1578.4 933.185 C 1577.81 937.955 1577 943.395 1576.83 948.126 L 1563.08 946.943 C 1562.66 944.417 1565.14 927.403 1565.03 921.655 z"/>
<path transform="translate(0,0)" fill="rgb(76,76,76)" d="M 1545.66 940.068 C 1545.95 944.553 1545.22 944.655 1547.69 947.8 C 1553.18 949.921 1557.6 945.164 1562.42 949.914 C 1562.05 954.939 1561.66 959.671 1561.66 964.712 C 1554.84 965.594 1551.2 966.091 1544.21 965.862 C 1544.53 957.189 1544.76 948.707 1545.66 940.068 z"/>
<path transform="translate(0,0)" fill="rgb(76,76,76)" d="M 1522.23 987.779 L 1522.74 987.979 C 1522.1 991.703 1521.47 994.204 1521.71 998.011 C 1525.19 1002.9 1528.95 1000.73 1534.11 1001.96 C 1525.55 1002.95 1510.5 1003.08 1506.03 993.936 C 1507.61 986.432 1516.1 987.734 1522.23 987.779 z"/>
<path transform="translate(0,0)" fill="rgb(76,76,76)" d="M 1522.23 987.779 C 1527.13 974.762 1524.87 972.867 1541.77 978.677 L 1537.13 988.801 C 1532.65 988.511 1527.14 988.012 1522.74 987.979 L 1522.23 987.779 z"/>
<path transform="translate(0,0)" fill="rgb(196,195,195)" d="M 1564.07 989.227 C 1564.13 985.892 1563.35 983.269 1563.58 979.59 C 1565.58 976.165 1564.39 977.099 1567.94 975.948 C 1572.45 976.737 1573.07 976.853 1577.07 979.24 C 1575.57 982.054 1576.02 987.389 1576 990.863 C 1573.4 990.552 1566.2 989.829 1564.07 989.227 z"/>
<path transform="translate(0,0)" fill="rgb(255,255,255)" d="M 1669.01 948.572 C 1678.51 948.796 1695.94 950.433 1705.55 951.742 C 1709.61 952.224 1710.83 952.331 1715.03 952.055 C 1717.93 954.187 1717.03 958.285 1716.86 961.761 C 1721.74 962.289 1730.95 963.794 1735.14 963.806 C 1739.78 964.285 1748.4 964.563 1752.18 966.113 C 1753.26 968.158 1753.1 968.082 1752.94 970.429 C 1753.18 978.583 1750.03 984.909 1750.15 997.688 C 1749.32 1002.06 1750.19 1001.15 1747.45 1003.45 C 1743.39 1004.57 1737.73 1003.44 1733.39 1002.88 C 1733.76 1008.79 1733.76 1010.83 1733.11 1016.7 C 1726.98 1016.56 1710.22 1016.57 1704.93 1015.13 L 1691.33 1014.4 C 1690.91 1011.11 1690.35 1008.71 1691.02 1005.46 C 1694.27 1000.41 1713.79 995.671 1691.2 986.739 C 1687.04 985.092 1681.43 983.038 1677.85 980.377 C 1676.03 974.483 1681.29 968.952 1678.1 964.043 L 1674.13 963.592 C 1672.73 962.185 1670.07 951.7 1669.01 948.572 z"/>
<path transform="translate(0,0)" fill="rgb(116,115,115)" d="M 1735.14 963.806 C 1739.78 964.285 1748.4 964.563 1752.18 966.113 C 1753.26 968.158 1753.1 968.082 1752.94 970.429 C 1753.18 978.583 1750.03 984.909 1750.15 997.688 C 1749.32 1002.06 1750.19 1001.15 1747.45 1003.45 C 1743.39 1004.57 1737.73 1003.44 1733.39 1002.88 C 1733.76 1008.79 1733.76 1010.83 1733.11 1016.7 C 1726.98 1016.56 1710.22 1016.57 1704.93 1015.13 C 1708.12 1015.2 1709.96 1015.6 1712.63 1013.94 C 1714.97 1010.82 1714.38 1005.98 1714.44 1001.76 L 1732.27 1002.71 C 1735.17 991.775 1735.67 989.984 1733.45 978.947 L 1733.86 978.487 C 1734.77 973.705 1734.89 968.681 1735.14 963.806 z"/>
<path transform="translate(0,0)" fill="rgb(154,153,153)" d="M 1735.14 963.806 C 1739.78 964.285 1748.4 964.563 1752.18 966.113 C 1753.26 968.158 1753.1 968.082 1752.94 970.429 C 1751.96 975.003 1752.41 977.941 1746.72 978.471 C 1742.51 978.864 1738.12 978.416 1733.86 978.487 C 1734.77 973.705 1734.89 968.681 1735.14 963.806 z"/>
<path transform="translate(0,0)" fill="rgb(76,76,76)" d="M 1750.15 997.688 C 1749.32 1002.06 1750.19 1001.15 1747.45 1003.45 C 1743.39 1004.57 1737.73 1003.44 1733.39 1002.88 C 1733.59 1001.08 1733.62 1001.52 1734.52 999.793 C 1738.65 998.171 1745.5 998.022 1750.15 997.688 z"/>
<path transform="translate(0,0)" fill="rgb(116,115,115)" d="M 1716.86 961.761 C 1721.74 962.289 1730.95 963.794 1735.14 963.806 C 1734.89 968.681 1734.77 973.705 1733.86 978.487 L 1733.45 978.947 C 1728.87 979.348 1720.75 978.136 1715.92 977.583 C 1716.75 971.693 1717.13 969.466 1716.68 963.61 L 1716.86 961.761 z"/>
<path transform="translate(0,0)" fill="rgb(196,195,195)" d="M 1705.55 951.742 C 1709.61 952.224 1710.83 952.331 1715.03 952.055 C 1717.93 954.187 1717.03 958.285 1716.86 961.761 L 1716.68 963.61 C 1713.43 963.667 1712.15 963.541 1708.93 963.06 C 1705.88 960.041 1706.14 956.324 1705.55 951.742 z"/>
<path transform="translate(0,0)" fill="rgb(76,76,76)" d="M 1497.03 943.76 C 1501.58 943.333 1508.27 943.975 1513.02 944.282 L 1511.76 956.946 C 1506.88 957.507 1501.85 957.439 1496.93 957.478 L 1497.03 943.76 z"/>
<path transform="translate(0,0)" fill="rgb(64,64,64)" d="M 1168.95 492.355 C 1177.91 493.219 1183.54 493.696 1192.31 495.807 C 1191.71 500.824 1191.49 505.993 1191.2 511.047 L 1176.96 511.084 C 1176.34 515.101 1176.06 519.963 1173.39 522.802 C 1161.94 524.888 1167.05 535.876 1163.8 544.538 C 1161.71 550.116 1155.37 544.965 1150.34 547.496 C 1147.89 552.388 1141.54 621.084 1144.85 625.202 C 1148.47 627.106 1153.59 627.088 1157.78 627.4 C 1157.92 633.269 1159.85 652.252 1157.44 656.321 L 1154.76 656.308 L 1139.29 655.644 C 1139.62 647.664 1138.05 639.794 1138.23 630.921 C 1130.48 629.16 1123.52 626.905 1115.52 625.72 C 1114.75 604.415 1120.14 570.36 1119.67 547.74 C 1120.17 547.198 1120.67 546.656 1121.17 546.114 C 1125.67 544.318 1132.04 544.864 1137.06 544.943 C 1138.89 538.008 1138.78 525.937 1142.41 521.21 C 1154.7 516.375 1148.21 513.892 1152.57 507.7 C 1156.54 506.244 1161.65 506.453 1165.96 506.332 C 1167.24 502.002 1168.09 496.837 1168.95 492.355 z"/>
<path transform="translate(0,0)" fill="rgb(64,64,64)" d="M 1604.64 626.355 C 1615.83 627.587 1623.89 630.759 1634.41 633.008 C 1634.31 636.874 1634.15 641.014 1634.06 644.855 C 1633.66 663.08 1629.1 668.271 1647.83 675.788 C 1647.12 694.125 1642.53 729.927 1638.21 747.543 L 1615.61 742.956 C 1615.2 751.947 1610.51 762.168 1607.52 771.157 C 1601.55 773.82 1596.85 773.451 1590.38 772.967 C 1589.22 776.732 1587.61 781.536 1586.77 785.266 C 1579.69 783.878 1573.22 782.584 1566.21 780.808 L 1569.67 766.323 C 1575.03 766.838 1580.39 767.245 1585.66 768.32 C 1588.42 759.846 1592.92 743.774 1599.53 738.152 C 1605.97 737.606 1604.43 739.656 1609.79 737.412 L 1611.52 733.929 C 1611.92 728.67 1620.31 681.385 1622.01 678.998 L 1629.77 677.724 C 1626.42 668.011 1616.72 674.961 1615.17 668.372 C 1611.5 652.778 1623.95 647.436 1600.87 638.787 L 1604.64 626.355 z"/>
<path transform="translate(0,0)" fill="rgb(76,76,76)" d="M 1611.52 733.929 C 1611.92 728.67 1620.31 681.385 1622.01 678.998 L 1629.77 677.724 C 1628.36 697.425 1627.61 713.009 1625.51 732.874 C 1621.56 732.791 1614.81 732.233 1611.52 733.929 z"/>
<path transform="translate(0,0)" fill="rgb(64,64,64)" d="M 1558.97 635.06 C 1565.81 636.916 1572.16 638.297 1579.07 639.778 C 1579.77 650.692 1580.42 654.779 1591.3 657.568 C 1590.63 673.221 1583.9 708.302 1579.76 724.746 C 1578.69 728.995 1574.1 724.134 1568.7 725.365 C 1565.67 728.183 1565.4 731.755 1564.4 735.959 L 1552.1 733.613 L 1550.21 742.218 C 1549.4 746.284 1549.88 747.269 1547.36 750.057 C 1542.96 751.601 1535.67 748.932 1530.67 747.738 C 1531.54 742.077 1532.36 731.07 1536.35 727.538 C 1549.11 727.443 1543.2 720.087 1553.79 711.334 C 1558.13 707.745 1563.33 659.651 1562.58 652.859 C 1560.59 650.053 1558.47 649.23 1555.46 647.53 C 1555.39 645.076 1558.05 637.864 1558.97 635.06 z"/>
<path transform="translate(0,0)" fill="rgb(64,64,64)" d="M 1209.19 528.927 C 1216.34 529.364 1221.53 530.448 1228.49 531.797 C 1228.8 546.872 1227.36 548.596 1212.87 550.395 C 1211.59 550.554 1210.82 551.53 1210.59 552.828 C 1207.71 569.701 1207.44 587.077 1204.93 604.084 C 1204.05 610.156 1208.73 629.933 1205.91 636.238 C 1205.43 637.324 1203.5 637.175 1201.95 637.378 C 1196.58 636.688 1190.99 636.169 1185.59 635.593 C 1185.45 634.137 1185.24 632.689 1184.95 631.254 C 1183.78 625.162 1183.27 621.506 1177.62 618.047 C 1175.33 612.643 1179.72 565.143 1181.63 558.106 C 1182.74 557.648 1183.83 557.164 1184.91 556.654 C 1190.46 554.016 1190.22 552.628 1192.44 546.322 C 1195.44 545.318 1202.97 545.943 1206.54 546.078 L 1209.19 528.927 z"/>
<path transform="translate(0,0)" fill="rgb(64,64,64)" d="M 451.863 992.952 C 452.383 999.567 452.418 1004.32 452.334 1010.92 L 470.493 1010.96 C 470.264 1017.19 470.279 1022.94 468.832 1029.03 C 455.707 1026.59 427.274 1027.63 412.142 1027.63 L 411.978 1013.26 C 403.724 1013.57 397.415 1013.03 389.296 1011.65 L 389.267 1011.08 C 389.112 1007.82 388.562 1004.03 390.893 1001.63 C 398.074 994.265 419.597 998.724 431.693 998.819 L 432.146 1010.38 L 451.275 1010.32 C 451.253 1004.04 451.255 999.265 451.863 992.952 z"/>
<path transform="translate(0,0)" fill="rgb(64,64,64)" d="M 1240.55 565.516 C 1244.31 566.295 1253.24 566.834 1254.35 569.76 C 1258.39 580.468 1254.68 581.709 1270.09 583.351 L 1270.04 584.108 C 1269.61 590.515 1270.3 594.149 1265.66 598.206 C 1261.76 599.687 1259.72 597.859 1255.46 597.561 C 1253.03 599.565 1253.8 599.207 1253.05 603.247 C 1252.57 605.192 1252.06 607.13 1251.52 609.059 C 1248.02 611.647 1244.31 610.425 1239.49 609.944 C 1234.53 606.132 1231.23 603.906 1225.89 600.649 C 1225.82 599.279 1226.46 583.521 1226.73 582.826 C 1231.46 570.795 1238.59 582.009 1240.55 565.516 z"/>
<path transform="translate(0,0)" fill="rgb(76,76,76)" d="M 1520.63 656.978 C 1524.95 656.786 1533.39 659.486 1537.81 660.783 C 1537.73 675.18 1537.96 694.03 1523.89 702.557 C 1520.11 703.365 1518.3 702.32 1514.61 701.05 L 1512.44 700.499 C 1510.85 697.048 1511.11 692.489 1510.98 688.537 C 1505.02 684.418 1503.08 683.608 1496.29 680.872 C 1499.24 669.29 1497.11 667.861 1509.21 668.306 C 1513.42 668.46 1518.03 660.447 1520.63 656.978 z"/>
<path transform="translate(0,0)" fill="rgb(64,64,64)" d="M 1799.78 1007.17 C 1805.22 1007.69 1814.93 1007.13 1814.41 1012.66 C 1813.57 1021.68 1826.55 1018.99 1826.36 1026.31 L 1823.05 1027.11 L 1821.17 1031.26 C 1818.27 1033.77 1814.72 1033.35 1810.63 1033.56 C 1804.38 1033.26 1798.08 1033.4 1791.87 1033.05 C 1781.17 1032.43 1782.39 1026.74 1782.84 1019.06 L 1797.78 1019.02 C 1798.07 1015.68 1799.14 1010.64 1799.78 1007.17 z"/>
<path transform="translate(0,0)" fill="rgb(64,64,64)" d="M 1138.25 981.349 C 1141.38 981.541 1149.3 981.563 1151.36 983.183 C 1152.78 988.322 1155.7 999.564 1154.72 1004.64 C 1152.18 1006.41 1149.01 1005.82 1145.7 1005.72 C 1141.03 1005.6 1134.41 1005.93 1130.49 1003.93 C 1127.57 1000.1 1128.39 998.074 1129.08 992.93 C 1132.49 990.501 1132.41 993.588 1136.61 991.046 L 1138.25 981.349 z"/>
<path transform="translate(0,0)" fill="rgb(64,64,64)" d="M 1034.79 1016.25 C 1046.29 1016.98 1055.8 1018.22 1067.48 1018.34 C 1067.38 1021.86 1067.55 1026.11 1067.6 1029.7 C 1057.58 1029.41 1042.79 1031.59 1035.8 1026.35 C 1033.74 1022.22 1034.58 1021.52 1034.79 1016.25 z"/>
<path transform="translate(0,0)" fill="rgb(64,64,64)" d="M 310.739 986.329 C 320.422 984.761 333.47 987.086 327.886 999.972 L 325.133 1000.87 C 317.967 1000.89 308.455 1002.25 303.659 996.284 C 303.568 992.931 303.822 992.752 305.51 989.706 C 307.615 988.572 308.786 987.722 310.739 986.329 z"/>
<path transform="translate(0,0)" fill="rgb(64,64,64)" d="M 1248.26 1029.82 C 1257.1 1031.51 1274.48 1029.04 1268.53 1043.33 L 1266.23 1043.87 L 1265.67 1043.87 C 1256.93 1043.81 1253.62 1043.27 1245.12 1041.85 C 1245.26 1035.99 1244.49 1033.41 1248.26 1029.82 z"/>
<path transform="translate(0,0)" fill="rgb(41,41,41)" d="M 495.838 1047.79 C 502.375 1048.4 509.933 1048.35 516.571 1048.46 L 517.153 1061.72 L 495.71 1061.08 L 495.838 1047.79 z"/>
<path transform="translate(0,0)" fill="rgb(64,64,64)" d="M 1467.56 1059.16 C 1472.12 1057.79 1480.49 1060.33 1483.35 1065.08 C 1483.63 1069.61 1484.09 1068.12 1482.29 1071.61 L 1479.25 1072.27 C 1472.33 1072.23 1466.67 1071.56 1459.85 1070.8 C 1459.94 1067.57 1459.99 1065.19 1460.47 1061.94 C 1463.22 1059.16 1463.2 1059.9 1467.56 1059.16 z"/>
<path transform="translate(0,0)" fill="rgb(64,64,64)" d="M 1086.57 1003.29 C 1091.72 1003.96 1099.72 1004 1105.11 1004.18 C 1105.82 1009.94 1105.93 1011.55 1105.48 1017.31 C 1098.75 1017.48 1091.66 1016.99 1084.91 1016.65 L 1086.57 1003.29 z"/>
<path transform="translate(0,0)" fill="rgb(64,64,64)" d="M 248.843 1006.01 L 269.418 1006.55 L 271.027 1017.57 C 264.129 1019.88 256.162 1018.68 248.925 1018.05 L 248.843 1006.01 z"/>
<path transform="translate(0,0)" fill="rgb(64,64,64)" d="M 345.985 1000.07 C 353.295 1001.11 360.351 998.839 365.344 1003.07 C 367.438 1006.29 367.166 1009.56 367.277 1013.39 L 345.755 1012.98 L 345.985 1000.07 z"/>
<path transform="translate(0,0)" fill="rgb(76,76,76)" d="M 322.954 1027.8 C 329.336 1028.13 336.751 1028.04 343.218 1028.12 L 344.179 1040 C 337.396 1040.17 329.902 1040.02 323.063 1040.01 L 322.954 1027.8 z"/>
<path transform="translate(0,0)" fill="rgb(64,64,64)" d="M 978.168 1013.96 C 984.764 1013.97 993.197 1013.2 997.8 1017.5 C 999.516 1020.69 998.856 1022.87 998.478 1026.55 L 978.13 1026.58 C 977.959 1022.8 978.139 1017.84 978.168 1013.96 z"/>
<path transform="translate(0,0)" fill="rgb(64,64,64)" d="M 1546.06 1044.98 C 1553.21 1046.15 1560.34 1044.24 1565.14 1047.96 C 1566.89 1051.15 1566.06 1054.21 1565.67 1058 C 1559.55 1058.24 1551.39 1059.6 1546.93 1056.11 C 1544.75 1052.83 1545.7 1049.17 1546.06 1044.98 z"/>
<path transform="translate(0,0)" fill="rgb(64,64,64)" d="M 1851.56 1014.82 C 1857.39 1014.78 1864.44 1015.23 1870.36 1015.44 L 1869.83 1028.18 L 1849.77 1027.79 C 1850.48 1023.71 1851 1018.98 1851.56 1014.82 z"/>
<path transform="translate(0,0)" fill="rgb(64,64,64)" d="M 1129.75 1025.93 C 1135.63 1026.13 1144.06 1025.46 1148.49 1028.15 C 1150.82 1031.04 1150.42 1034.2 1150.58 1038.1 C 1143.02 1038.68 1136.81 1038.17 1129.28 1037.73 L 1129.75 1025.93 z"/>
<path transform="translate(0,0)" fill="rgb(64,64,64)" d="M 1893.98 1025.84 C 1898.95 1026.03 1907.08 1025.52 1910.76 1028.09 C 1912.87 1032.23 1912.02 1032.97 1911.85 1038.28 L 1891.26 1037.74 L 1893.98 1025.84 z"/>
<path transform="translate(0,0)" fill="rgb(76,76,76)" d="M 1398.33 1030.71 C 1404.11 1031.76 1412.27 1030.81 1416.65 1033.68 C 1418.73 1036.59 1418.13 1039.84 1418.05 1043.63 L 1397.89 1042.84 L 1398.33 1030.71 z"/>
<path transform="translate(0,0)" fill="rgb(64,64,64)" d="M 1815.31 1041.04 C 1821.62 1041.68 1830.34 1040.01 1834.18 1045.2 C 1834.5 1048.53 1834.28 1049.52 1833.74 1052.84 C 1827.32 1052.65 1819.42 1054.31 1814.97 1050.54 C 1813.41 1047.3 1814.49 1044.73 1815.31 1041.04 z"/>
<path transform="translate(0,0)" fill="rgb(64,64,64)" d="M 1466.94 1027.62 C 1473.79 1028.29 1480.92 1026.45 1485.91 1029.18 C 1488.48 1032.06 1488.13 1033.94 1488.35 1037.89 C 1481.25 1037.06 1473.99 1038.52 1468.39 1035.83 C 1466.19 1032.65 1466.94 1032.03 1466.94 1027.62 z"/>
<path transform="translate(0,0)" fill="rgb(196,195,195)" d="M 1340.01 985.019 C 1339.35 981.117 1338.35 977.386 1339.54 973.629 C 1341.93 970.874 1340.66 971.652 1344.46 970.861 C 1347.74 971.93 1347.31 971.219 1348.88 973.503 C 1348.92 978.101 1348.27 980.823 1347.4 985.315 L 1341.24 986.04 L 1340.01 985.019 z"/>
</svg>